<svg xmlns="http://www.w3.org/2000/svg" id="Layer_1" viewBox="0 0 598.11 540"><defs><style>.st0{fill:#003c73}</style></defs><path d="m484.08 186.08-96.25-80.64c-3.25-2.73-8.58-2.73-11.83 0l-96.25 80.64h-93.02v133.68h165.14c6.28-10.5 17.78-17.52 30.9-17.52 19.89 0 36.01 16.12 36.01 36.01v41.3H559.2c10.78 0 19.6-8.82 19.6-19.6V186.08zm-239.32 111.2h-33.58v-33.57h33.58zm60.03 0h-33.58v-33.57h33.58zm77.96-77.58c-14.81 0-26.83-12.02-26.83-26.84s12.02-26.83 26.83-26.83 26.84 12.02 26.84 26.83-12.02 26.84-26.84 26.84m111.56 137.32h-33.58v-33.58h33.58zm0-59.74h-33.58v-33.57h33.58zm60.02 59.74h-33.58v-33.58h33.58zm0-59.74h-33.58v-33.57h33.58zM512.11 99.09h-67.83L432.3 89.04V48.62h55.94V13.39h-62.21c-3.47 0-6.27 2.81-6.27 6.27V78.5l-31.23-26.21c-3.83-3.21-9.4-3.21-13.23 0l-55.75 46.78h-59.58l-73.24 66.65h85.42L381.92 73.6l109.77 92.12h87.11l-66.68-66.65h-.03Z" class="st0"/><path d="M334.54 339.07v67.36H135.61v33.49L19.29 372.75l116.32-67.17v33.5h198.93Z" class="st0"/><path d="M353.91 526.61v-33.5H154.99v-67.35h198.92v-33.5l116.33 67.17-116.33 67.17Z" class="st0"/><path d="M353.91 526.61v-33.5H154.99v-67.35h198.92v-33.5l116.33 67.17-116.33 67.17Z" class="st0"/></svg>