<svg xmlns="http://www.w3.org/2000/svg" id="Layer_1" viewBox="0 0 498.3 540"><defs><style>.st0{fill:#003c73}</style></defs><path d="m475.4 309.33-45.25-111.72H312.61l-63.46-70.4-63.46 70.4H68.15L22.9 309.33h15.62v-.03h116.91l86.42-95.86 7.31-8.11 7.31 8.11 86.42 95.86H459.8v.03h15.62Z" class="st0"/><path d="M449.9 496V319.28H338.51l-8.97-9.95-80.38-89.18-80.38 89.18-8.97 9.95H48.4V496H22.9v26.34h452.5V496zm-59.4-155.62h32.02v57.44H390.5zm0 84.4h32.02v57.44H390.5zm-66.82-84.4h32.02v57.44h-32.02zm0 84.4h32.02v57.44h-32.02zm-74.53-137.99c25.06 0 45.37 20.5 45.37 45.78s-20.31 45.78-45.37 45.78-45.37-20.5-45.37-45.78 20.31-45.78 45.37-45.78M142.6 340.38h32.02v57.44H142.6zm0 84.4h32.02v57.44H142.6zm-66.81-84.4h32.02v57.44H75.79zm0 84.4h32.02v57.44H75.79zM225.04 496v-67.08h48.21V496z" class="st0"/><path d="M258.14 332.57c0 5.01-4.03 9.07-8.99 9.07s-8.99-4.06-8.99-9.07 4.03-9.07 8.99-9.07 8.99 4.06 8.99 9.07" class="st0"/><path d="M249.15 337.56c-2.73 0-4.94-2.23-4.94-4.99v-33.41c0-2.76 2.21-4.99 4.94-4.99s4.94 2.23 4.94 4.99v33.41c0 2.76-2.21 4.99-4.94 4.99" class="st0"/><path d="M269.02 337.56h-19.86c-2.73 0-4.94-2.23-4.94-4.99s2.21-4.99 4.94-4.99h19.86c2.73 0 4.94 2.23 4.94 4.99s-2.21 4.99-4.94 4.99m-19.87-197.81c-2.73 0-4.94-2.23-4.94-4.99V22.65c0-2.76 2.21-4.99 4.94-4.99s4.94 2.23 4.94 4.99v112.12c0 2.76-2.21 4.99-4.94 4.99Z" class="st0"/><path d="M356.78 41.7c-35.88 21.76-71.75-21.76-107.63 0v57.27c35.88-21.76 71.75 21.76 107.63 0z" class="st0"/></svg>