<svg xmlns="http://www.w3.org/2000/svg" viewBox="0 0 496.5 540"><path d="M341.03 16.09H62.73c-24.17 0-43.48 19.86-43.48 43.29v363.94c0 24.17 19.87 43.48 43.48 43.48h221.33c.19-9.93 2.81-19.49 7.31-28.11l92.39-175.97V59.38c.75-24.18-19.11-43.29-42.72-43.29ZM159.68 368.91l-37.12 40.77c-2.44 3.04-5.47 4.26-9.12 4.26s-7.3-1.82-9.13-4.26l-20.08-21.3c-4.87-4.87-4.26-12.77 1.22-17.64 5.47-4.87 12.77-4.26 17.64 1.21l10.35 10.96 27.38-30.43c4.87-4.87 12.78-5.47 17.65-1.21 5.47 4.87 5.47 12.77 1.22 17.64Zm0-93.15-37.12 40.77c-2.44 3.04-5.47 4.26-9.12 4.26s-7.3-1.82-9.13-4.26l-20.08-21.29c-4.87-4.87-4.26-12.78 1.22-17.64 5.47-4.87 12.77-4.26 17.64 1.22l10.35 10.95 27.38-30.42c4.87-4.87 12.78-5.48 17.65-1.22 5.47 4.87 5.47 12.77 1.22 17.64Zm0-93.16-37.12 40.77c-2.44 3.04-5.47 4.26-9.12 4.26s-7.3-1.82-9.13-4.26l-20.08-21.29c-4.87-4.87-4.26-12.78 1.22-17.64 5.47-4.87 12.77-4.26 17.64 1.22l10.35 10.95 27.38-30.42c4.87-4.87 12.78-5.48 17.65-1.22 5.47 4.87 5.47 12.78 1.22 17.64Zm0-93.67-37.12 41.37c-2.44 2.44-5.47 4.26-9.12 4.26s-7.3-1.82-9.13-4.26l-19.47-21.9c-4.87-5.48-4.26-13.39 1.21-17.65 5.47-4.87 12.78-4.26 17.64 1.22l10.35 11.56 27.38-30.42c4.87-5.48 12.78-5.48 17.65-1.22s4.87 12.17.61 17.04m104.84 317.1h-72.59c-6.69 0-12.78-5.47-12.78-12.78 0-6.7 5.47-12.78 12.78-12.78h71.98c7.3 0 12.78 5.48 12.78 12.78 0 6.69-5.48 12.78-12.17 12.78m44.75-93.16H191.93c-6.69 0-12.78-5.47-12.78-12.78 0-6.7 5.47-12.78 12.78-12.78h116.73c7.3 0 12.78 5.48 12.78 12.78 0 6.69-5.48 12.78-12.17 12.78m0-93.16H191.93c-6.69 0-12.78-5.48-12.78-12.78 0-6.69 5.47-12.78 12.78-12.78h116.73c7.3 0 12.78 5.47 12.78 12.78 0 6.7-5.48 12.78-12.17 12.78m0-93.67H191.93c-6.69 0-12.78-5.47-12.78-12.78s5.47-12.78 12.78-12.78h116.73c7.3 0 12.78 5.48 12.78 12.78 0 6.69-5.48 12.78-12.17 12.78m85.38 170.83-80.76 153.62a39.7 39.7 0 0 0-4.56 18.99l.56 44.12c.11 8.27 9.34 13.13 16.22 8.53l36.66-24.56c5.5-3.68 9.99-8.67 13.06-14.52l80.76-153.62zm73.8 10 6.72-12.8c4.65-8.83 1.25-19.76-7.58-24.4l-29.94-15.74c-8.84-4.65-19.77-1.25-24.41 7.59l-6.73 12.79z" style="fill:#003c73"/></svg>