<svg xmlns="http://www.w3.org/2000/svg" id="Layer_1" viewBox="0 0 583 540"><defs><style>.st0{fill:#003c73}</style></defs><path d="M570 349.24v14.16l-314.45 63.71-5.59 1.13c-5.73 1.16-9.92 6.74-9.92 13.25v50.72c0 8.39 6.8 14.74 14.21 13.25l295.07-61.73 20.67 9.62v10.3l-309.52 62.41c-13.82 2.79-28.07-.46-39.8-9.08L24.69 353.59C17.4 348.23 13 339.15 13 329.4v-48.38c0-9.04 5.8-16.78 13.78-18.39l6.75-1.36 96.3-19.42 146.3-29.5 16.76 7.8-42.92 8.7c-.12.02-.24.05-.36.07-.42.1-.82.22-1.21.36-.09.03-.17.06-.25.09s-.17.07-.25.1c-.6.24-1.18.55-1.72.89-.05.03-.11.07-.16.1-.07.06-.16.11-.23.16s-.15.11-.22.15c-.07.05-.15.1-.22.16-.07.05-.14.11-.21.16-.06.05-.13.1-.18.15-.02.02-.03.03-.06.05l-.18.15c-.07.06-.14.12-.2.18-.07.06-.14.13-.2.19-.2.19-.39.38-.58.58-.06.06-.11.13-.18.2l-.18.21c-.12.14-.24.28-.35.43-.06.07-.11.14-.17.22-.05.07-.11.14-.17.22-.05.07-.1.15-.15.23-.06.07-.11.15-.15.23-.11.15-.21.31-.3.47-1.29 2.15-2.03 4.74-2.03 7.48v50.72c0 4.49 1.94 8.39 4.88 10.83.71.58 1.47 1.08 2.28 1.49.07.04.15.07.23.11.17.09.35.16.52.23 0 0 .02 0 .03.01.09.04.18.07.27.11.09.03.19.07.27.1.24.09.5.16.75.23.07.02.15.05.22.06.15.04.3.07.46.1.07.02.15.03.23.04.03 0 .06.01.1.02.07.02.13.03.19.03.11.02.22.03.33.04h.04l.36.03h.04c.11 0 .22.01.32.02h.15c.46.01.94 0 1.41-.05.27-.03.55-.06.82-.12.09-.02.18-.03.27-.05l153.93-32.2 33.85 15.77.64.3-182.19 36.75c-1.63.32-3.27.58-4.91.73l-5.61 1.14c-2.24.45-4.24 1.58-5.85 3.17a7 7 0 0 0-.46.48l-.22.25c-.15.17-.29.34-.42.52-1.85 2.37-2.95 5.48-2.95 8.83v50.72c0 3.59 1.24 6.81 3.24 9.2.08.09.15.18.23.26.15.18.31.34.47.51.15.16.32.32.49.47.15.13.3.27.46.4.15.13.31.25.47.36.16.13.32.24.49.35l.25.17c.17.1.34.21.51.3 2.25 1.27 4.88 1.78 7.59 1.23l295.07-61.73v-4.42l20.67 9.63v.02Z" class="st0"/><path d="M570 249.55v14.16l-20.67 4.19-107.3 21.74-186.46 37.77-5.62 1.14c-2.24.45-4.24 1.58-5.85 3.17a7 7 0 0 0-.46.48c-.07.09-.15.17-.22.25-.15.17-.28.34-.42.52-1.86 2.37-2.96 5.48-2.96 8.83v50.72c0 3.59 1.25 6.81 3.25 9.2.08.09.15.18.23.26.15.18.31.34.47.51.15.16.32.32.49.47.15.14.3.27.46.4.15.13.31.25.47.37s.32.23.49.34l.25.17q.255.165.51.3c2.25 1.27 4.88 1.78 7.59 1.23l295.07-61.73 20.67 9.63v10.3l-309.52 62.41c-1.64.34-3.29.58-4.93.74-12.23 1.2-24.53-2.23-34.87-9.82L33.54 261.28l-8.85-7.38C17.4 248.54 13 239.45 13 229.71v-48.38c0-9.04 5.8-16.78 13.78-18.39l6.75-1.37 242.59-48.92 165.9 77.29-149.15 30.21-42.92 8.7c-.12.02-.24.05-.36.07-.42.1-.82.22-1.21.36-.09.03-.17.06-.25.09s-.17.07-.25.1c-.6.24-1.18.55-1.72.89-.05.03-.11.07-.16.1-.07.06-.16.11-.23.16s-.15.11-.22.15c-.07.05-.15.1-.22.16-.07.05-.14.11-.21.16-.06.05-.13.1-.18.15-.02.02-.03.03-.06.05l-.18.15c-.07.06-.14.12-.2.18-.07.06-.14.13-.2.19-.2.19-.39.38-.58.58-.06.06-.11.13-.18.2l-.18.21c-.12.14-.24.28-.35.43-.06.07-.11.14-.17.22-.05.07-.11.14-.17.22-.05.07-.1.15-.15.23-.06.07-.11.15-.15.23-.11.15-.21.31-.3.47-1.29 2.15-2.03 4.74-2.03 7.48v50.72c0 4.49 1.94 8.39 4.88 10.83.71.58 1.47 1.08 2.28 1.49.07.04.15.07.23.11.17.09.35.16.52.23 0 0 .02 0 .03.01.09.04.18.07.27.11.09.03.19.07.27.1.24.09.5.16.75.23.07.02.15.05.22.06.15.04.3.07.46.1.07.02.15.03.23.04.03 0 .06.01.1.02.07.02.13.03.19.03.11.02.22.03.33.04h.04l.36.03h.04c.11 0 .22.01.32.02h.15c.46.01.94 0 1.41-.05.27-.03.55-.06.82-.12.09-.02.18-.03.27-.05l153.93-32.2 141.15-29.52v-4.42l20.67 9.63v.02Z" class="st0"/><path d="M549.33 267.9v.53l-106.66 21.51-182.19 36.74c-1.63.33-3.27.58-4.9.73l186.46-37.77 107.3-21.74Z" class="st0"/><path d="M241.85 235.03c.08-.14.15-.27.23-.41.1-.16.19-.31.3-.47.05-.08.1-.15.15-.23s.1-.15.15-.23.11-.15.17-.22c.05-.08.11-.15.17-.22.11-.15.23-.29.35-.43.06-.07.11-.14.18-.21.06-.07.12-.14.18-.2.19-.2.38-.39.58-.58.06-.06.13-.13.2-.19.06-.06.14-.12.2-.18.06-.05.11-.1.18-.15.02-.02.03-.03.06-.05l.18-.15c.07-.06.14-.11.21-.16.07-.06.15-.11.22-.16s.15-.11.22-.15c.07-.05.16-.11.23-.16.05-.03.11-.07.16-.1.54-.35 1.12-.65 1.72-.89.08-.04.17-.07.25-.1.09-.03.17-.07.25-.09.39-.15.8-.26 1.21-.36.12-.03.24-.05.36-.07l42.91-8.7 149.15-30.21 107.29-21.74 20.67-4.19v-14.16L276.12 12.97 26.78 63.25C18.81 64.86 13 72.6 13 81.64v48.38c0 9.74 4.4 18.83 11.69 24.18l8.85 7.38 96.3 80.27 90.85 75.74c10.34 7.6 22.64 11.03 34.9 9.81 1.63-.15 3.27-.4 4.9-.73l182.19-36.74 106.66-21.51 20.67-4.17v-10.3l-20.67-9.63-141.15 29.52-153.93 32.2c-.09.02-.18.03-.27.05-.27.05-.55.09-.82.12-.47.05-.95.06-1.41.05h-.15c-.11 0-.22-.01-.32-.02h-.04l-.36-.03h-.04c-.11-.01-.22-.03-.33-.04-.06 0-.13-.02-.19-.03-.04 0-.07-.02-.1-.02-.07-.01-.15-.03-.23-.04-.15-.03-.3-.06-.46-.1-.08-.02-.15-.03-.22-.05-.25-.07-.51-.15-.75-.23-.09-.03-.19-.06-.27-.1-.1-.03-.18-.07-.27-.11-.01 0-.02-.01-.03-.01-.17-.07-.34-.14-.52-.23-.07-.03-.15-.07-.23-.11-.81-.4-1.58-.9-2.28-1.49-.18-.15-.36-.31-.54-.47-.09-.08-.18-.17-.27-.26-2.49-2.44-4.09-6.03-4.09-10.1V242.1c0-2.57.65-5 1.8-7.07h-.01Zm26.28-188.88 57.83 30.38-136.1 34.17-58.9-34.17z" class="st0"/></svg>