<svg xmlns="http://www.w3.org/2000/svg" id="Layer_1" viewBox="0 0 612.05 540"><defs><style>.st0{fill:#003c73}</style></defs><path d="M462.66 277.22c-37.39 0-67.71 30.32-67.71 67.7s30.32 67.72 67.71 67.72 67.71-30.33 67.71-67.72-30.33-67.7-67.71-67.7m-48.4 145.98v102.3l48.41-48.39 48.38 48.39V423.21c-14.09 8.73-30.63 13.87-48.38 13.87s-34.32-5.14-48.41-13.88" class="st0"/><path d="M565.54 14.5H46.51c-18.7 0-33.86 15.16-33.86 33.85v359.04c0 18.7 15.16 33.87 33.86 33.87h343.31v-40.11c-12.06-15.59-19.3-35.06-19.3-56.23 0-50.8 41.34-92.14 92.16-92.14s92.16 41.34 92.16 92.14c0 21.19-7.26 40.67-19.33 56.26v40.09h30.05c18.69 0 33.85-15.16 33.85-33.87V48.35c0-18.69-15.16-33.85-33.85-33.85ZM257.58 364.93H107.82v-24.45h149.76zm246.65-166.46H107.82v-24.45h396.42v24.45Zm0-83.22H107.82V90.8h396.42v24.45Z" class="st0"/></svg>