<svg xmlns="http://www.w3.org/2000/svg" viewBox="0 0 540 540"><path d="M500.83 316.38c3.1-15.83 30.68-29.63 30.68-46.37s-27.58-30.55-30.68-46.37c-3.19-16.31 17-39.68 10.83-54.69-6.27-15.27-36.98-17.35-45.97-30.92-9.07-13.67.72-43.1-10.77-54.7-11.48-11.59-40.64-1.71-54.18-10.87-13.44-9.09-15.51-40.08-30.63-46.42-14.86-6.22-38.02 14.16-54.18 10.93C300.25 33.84 286.58 6 270 6s-30.26 27.84-45.93 30.97c-16.16 3.22-39.31-17.15-54.17-10.94-15.12 6.33-17.18 37.33-30.63 46.42-13.54 9.16-42.7-.73-54.18 10.87-11.48 11.59-1.7 41.02-10.77 54.7-9 13.57-39.71 15.65-45.98 30.92-6.16 15 14.02 38.38 10.83 54.69-3.1 15.83-30.68 29.63-30.68 46.37s27.58 30.55 30.68 46.37c3.19 16.31-17 39.68-10.83 54.69 6.27 15.27 36.98 17.35 45.98 30.92 9.07 13.67-.72 43.1 10.76 54.7 11.48 11.59 40.64 1.72 54.18 10.87 13.44 9.09 15.51 40.08 30.63 46.42 14.86 6.22 38.02-14.15 54.18-10.93 15.68 3.13 29.35 30.97 45.94 30.97s30.25-27.84 45.93-30.97c16.15-3.22 39.3 17.15 54.16 10.94 15.12-6.33 17.19-37.33 30.63-46.42 13.55-9.16 42.7.73 54.19-10.87 11.48-11.59 1.7-41.03 10.77-54.7 9-13.57 39.71-15.65 45.98-30.92 6.16-15-14.02-38.38-10.83-54.69zm-120.47-87.61L256.99 353.32c-5.75 5.81-13.3 8.72-20.84 8.72s-15.09-2.91-20.84-8.72l-55.68-56.21c-11.51-11.62-11.51-30.45 0-42.08 11.5-11.62 30.18-11.62 41.68 0l34.84 35.17 102.53-103.51c11.5-11.62 30.18-11.62 41.68 0 11.51 11.62 11.51 30.45 0 42.08" style="fill:#003c73"/></svg>