<svg xmlns="http://www.w3.org/2000/svg" id="Layer_1" viewBox="0 0 622.26 540"><defs><style>.st0{fill:#003c73}</style></defs><path d="M66.15 233.97c0-6.76-4.07-12.54-9.88-15.12.11-.49.3-.95.3-1.47v-81.56l-14.03-5.18v86.73c0 .52.19.98.3 1.48-5.8 2.59-9.86 8.36-9.86 15.12 0 6.09 3.44 11.18 8.32 14.07L22.03 303.2c0 2.52 12.33 4.56 27.54 4.56s27.54-2.04 27.54-4.56l-19.27-55.16c4.88-2.9 8.32-7.99 8.32-14.07Zm207.48-20.04c-3.55 0-7.11-.63-10.49-1.87s-130.51-48.18-130.51-48.18v75.44c0 41.92 63.13 75.9 141 75.9s141-33.98 141-75.9v-75.44l-130.51 48.16a30.3 30.3 0 0 1-10.5 1.88Z" class="st0"/><path d="m279.29 198.87 251.57-92.84-253.3-93.49c-2.54-.94-5.32-.92-7.84.01l-253.3 93.48 251.57 92.85c3.66 1.33 7.67 1.35 11.3-.01m292.38 40.6c-9.69-9.94-19.35-14.16-28.1-11.68-.77.12-1.54.38-2.27.78l-113.07 61.4c-21.12 11.47-42.83 21.88-64.77 31.78-9.82-1.35-19.84-.28-29.23 3.63-9.38 3.91-17.18 10.29-23.15 18.21-22.48 8.62-45.15 16.72-68.17 23.66l-121.72 36.71s-.02.01-.04.01l-1.47.44c-.09.03-.16.11-.25.14-.11.05-.26.08-.37.12-5 2.08-13.32 8.61-12.98 28.97.22 12.89 3.86 28.45 10.26 43.83 11.13 26.76 29.9 50.68 46.85 50.68 2.27 0 4.51-.43 6.68-1.33.13-.05.2-.17.33-.23.05-.02.1 0 .15-.03L280 469.82c12.96-6.7 26.14-13.07 39.36-19.35l4.1 35.87a7.05 7.05 0 0 0 4.44 5.76c.82.32 1.68.47 2.53.47 1.68 0 3.33-.6 4.63-1.74l25.73-22.65 30.18 16.25c2.29 1.23 5.1 1.07 7.25-.37 2.16-1.47 3.34-4.02 3.03-6.61l-3.76-32.95 20.36 12.09c1.11.66 2.34.99 3.58.99s2.55-.36 3.69-1.04a7.04 7.04 0 0 0 3.31-6.49l-2.45-34.23 31.17-14.24a7.03 7.03 0 0 0 4.1-6.02c.04-.76-.29-1.44-.48-2.15 4.7-1.58 9.35-3.35 14.06-4.87l114.93-37.23 2.35-.68c.29-.09.57-.19.86-.32 18.3-7.79 15.17-42.42 2.58-72.68-6.38-15.36-14.88-28.93-23.88-38.18ZM147.74 438.24c.6.47 1.59 1.52 2.75 3.06 3.34 5.49 6.47 11.58 9.19 18.12 2.2 5.29 3.8 10.17 5.14 14.83l-8.77 3.66c-1.4-2.65-3.31-6.63-5.7-12.35-5.39-12.96-4.4-23.89-2.6-27.31Zm16.76 75.6c-5.12 2.13-22.24-10.63-35.2-41.78-5.73-13.78-8.99-27.51-9.18-38.66-.16-9.57 2.06-14.81 4.34-15.76.34-.15.75-.22 1.22-.22 2.67 0 7.35 2.4 13.04 8.23.26.26.5.61.75.88-.86.7-1.68 1.53-2.4 2.48-6.53 8.55-6.39 25.79.33 41.93 6.06 14.56 9.66 19.36 10.33 20.19a7.03 7.03 0 0 0 5.45 2.59c.91 0 1.82-.18 2.69-.53l12.1-5.04c2.21 14.86-.12 24.31-3.45 25.69h-.01Zm198.67-60.33a7.035 7.035 0 0 0-7.95.91l-19.32 16.99-4.97-43.56c1.2.6 2.28 1.36 3.53 1.88a56 56 0 0 0 21.48 4.29c6.19 0 12.34-1.28 18.31-3.34l8.13 4.83 3.44 30.19-22.66-12.2Zm9.06-36.84c-10.45 4.36-21.98 4.4-32.44.07-10.47-4.31-18.63-12.45-22.99-22.92-4.35-10.46-4.38-21.98-.07-32.48 4.32-10.48 12.45-18.65 22.9-23 5.25-2.19 10.78-3.29 16.3-3.29s10.93 1.07 16.14 3.22c10.47 4.31 18.63 12.45 22.99 22.92 4.35 10.47 4.38 21.98.07 32.48-4.32 10.48-12.45 18.64-22.9 23m43.51-11.59a7.03 7.03 0 0 0-4.08 6.9l1.84 25.69-24.51-14.56c8.4-6.08 15.07-14.27 19.11-24.1 2.73-6.63 4.06-13.59 4.18-20.56l26.87 15.96-23.4 10.68Z" class="st0"/><path d="M347.21 356.53c-11.58 4.83-17.04 18.13-12.22 29.72s18.11 17.06 29.69 12.24c11.58-4.83 17.04-18.13 12.22-29.72s-18.11-17.07-29.69-12.24" class="st0"/></svg>