<svg xmlns="http://www.w3.org/2000/svg" viewBox="0 0 540 540"><path d="M461 276.17v-15.49c0-13.67 8.49-25.86 21.22-30.49l34.87-9.56c8.86-2.43 14.04-11.66 11.61-20.6a269.6 269.6 0 0 0-26.69-64.1c-4.05-7.01-12.51-10.07-20.05-7.24l-35.84 13.45c-12.24 5.82-26.78 3.26-36.35-6.4l-10.85-10.96c-9.57-9.66-12.1-24.35-6.34-36.72l16.39-28.26c4.66-8.04 1.91-18.37-6.1-22.97a264 264 0 0 0-63.63-26.26c-7.77-2.07-15.89 1.78-19.26 9.15l-14.56 31.87c-4.58 12.86-16.66 21.43-30.19 21.43h-15.34c-13.53 0-25.6-8.57-30.19-21.43l-9.07-29.35c-2.66-8.62-11.6-13.5-20.22-11.13-22.46 6.18-43.73 15.24-63.43 26.77-7.23 4.23-10.16 13.28-6.86 21.03l12.4 29.16c5.76 12.36 3.22 27.05-6.34 36.72l-10.85 10.96c-9.57 9.66-24.11 12.23-36.35 6.4l-28.87-12.52c-7.68-3.33-16.63-.37-20.81 6.93a270 270 0 0 0-26.5 64.07c-2.35 8.7 2.48 17.74 11.01 20.43l29.06 9.16c12.73 4.63 21.22 16.82 21.22 30.49v15.49c0 13.67-8.49 25.86-21.22 30.49L21.31 321.4c-7.29 3.4-11.11 11.61-9.06 19.45a269.5 269.5 0 0 0 26 64.28c4.56 8.09 14.79 10.86 22.74 6.16l27.98-16.55c12.24-5.82 26.78-3.26 36.35 6.4l10.85 10.96c9.57 9.66 12.1 24.35 6.34 36.72l-13.29 36.14c-2.83 7.7.3 16.32 7.37 20.37 19.41 11.14 39.32 18.58 61.57 24.19 8.22 2.07 16.66-2.52 19.53-10.57l11.99-33.65c4.58-12.86 16.66-21.43 30.19-21.43h15.34c13.53 0 25.6 8.57 30.19 21.43l11.94 33.52c2.9 8.16 11.52 12.75 19.8 10.49 22.59-6.14 44-15.19 63.81-26.73 7.42-4.33 10.28-13.71 6.63-21.55l-15.01-32.2c-5.76-12.36-3.22-27.05 6.34-36.72l10.85-10.96c9.57-9.66 24.11-12.23 36.35-6.4l31.88 15.16c7.76 3.69 17.05.8 21.33-6.7a270 270 0 0 0 26.47-64.45c2.23-8.37-2.31-17.07-10.39-20l-33.18-12.06c-12.73-4.63-21.22-16.82-21.22-30.49v-.02ZM267.55 384.03c-63.21 0-114.46-51.76-114.46-115.61s51.25-115.61 114.46-115.61S382 204.57 382 268.42s-51.24 115.61-114.45 115.61" style="fill:#003c73"/></svg>